<?xml version="1.0" standalone="no"?><!DOCTYPE svg PUBLIC "-//W3C//DTD SVG 1.1//EN" "http://www.w3.org/Graphics/SVG/1.1/DTD/svg11.dtd"><svg t="1763491344191" class="icon" viewBox="0 0 1024 1024" version="1.1" xmlns="http://www.w3.org/2000/svg" p-id="15167" xmlns:xlink="http://www.w3.org/1999/xlink" width="32" height="32"><path d="M793.8 722.5H741c-90.7 0-173.4-49.8-215.8-129.9L440.1 432c-34.8-65.7-102.6-106.5-177-106.5h-48.8v-44h48.8c90.7 0 173.4 49.8 215.8 129.9L564.1 572c34.8 65.7 102.6 106.5 177 106.5h52.8v44z" fill="#dbdbdb" p-id="15168"></path><path d="M263.1 722.5h-48.8v-44h48.8c74.3 0 142.1-40.8 177-106.5l85.1-160.5c42.5-80.1 125.2-129.9 215.8-129.9h52.8v44H741c-74.3 0-142.2 40.8-177 106.5l-85 160.5c-42.5 80.1-125.2 129.9-215.9 129.9z" fill="#dbdbdb" p-id="15169"></path><path d="M729.5 399.9l-31.1-31.1 64.6-64.6-64.6-64.6 31.1-31.1 95.8 95.7zM729.5 795.9l-31.1-31.1 64.6-64.6-64.6-64.6 31.1-31.1 95.8 95.7z" fill="#dbdbdb" p-id="15170"></path></svg>