<?xml version="1.0" standalone="no"?><!DOCTYPE svg PUBLIC "-//W3C//DTD SVG 1.1//EN" "http://www.w3.org/Graphics/SVG/1.1/DTD/svg11.dtd"><svg t="1763490916839" class="icon" viewBox="0 0 1024 1024" version="1.1" xmlns="http://www.w3.org/2000/svg" p-id="5854" xmlns:xlink="http://www.w3.org/1999/xlink" width="32" height="32"><path d="M682.193 329.564c-12.267-12.406-32.245-12.466-44.572-0.182-12.388 12.283-12.448 32.29-0.183 44.632 37.164 37.58 57.627 87.382 57.627 140.224 0 51.808-19.856 100.94-55.806 138.276-12.084 12.528-11.719 32.532 0.79 44.634 6.133 5.9 14.027 8.878 21.922 8.878 8.258 0 16.516-3.222 22.71-9.667 47.426-49.195 73.538-113.894 73.538-182.181-0.12-69.565-27.082-135.117-76.026-184.614z" p-id="5855" fill="#dbdbdb"></path><path d="M776.316 192.685c-13.117-11.492-33.034-10.093-44.512 3.04-11.417 13.135-10.08 33.08 3.036 44.573 79.186 69.199 124.547 169.107 124.547 274.182 0 103.678-44.39 202.673-121.752 271.752-12.995 11.614-14.148 31.56-2.55 44.572 6.253 6.993 14.877 10.58 23.56 10.58 7.47 0 14.939-2.615 20.95-8.027 90.782-80.996 142.884-197.2 142.884-318.877a427.28 427.28 0 0 0-146.163-321.795zM490.878 159.29l-271.622 211.01H109.987v292.428h110.164l270.884 211.01c31.816 24.785 57.591 12.277 57.591-27.92V187.21c0-40.263-25.855-52.697-57.748-27.921z" p-id="5856" fill="#dbdbdb"></path></svg>